name C:/MyDriveSym/Projects/mobilecap/Data\Session20210820_0001\mocap\ForceDataProcessed\DJAsym3_forces.mot
datacolumns 28
datarows 6
range 1.31450000 1.31700000
endheader 
time	R_ground_force_vx	R_ground_force_vy	R_ground_force_vz	R_ground_force_px	R_ground_force_py	R_ground_force_pz	R_ground_torque_x	R_ground_torque_y	R_ground_torque_z	L_ground_force_vx	L_ground_force_vy	L_ground_force_vz	L_ground_force_px	L_ground_force_py	L_ground_force_pz	L_ground_torque_x	L_ground_torque_y	L_ground_torque_z	3_ground_force_vx	3_ground_force_vy	3_ground_force_vz	3_ground_force_px	3_ground_force_py	3_ground_force_pz	3_ground_torque_x	3_ground_torque_y	3_ground_torque_z	
          1.31450000	       -291.14078100	       1183.90282200	       -139.99895400	         -0.15593200	          0.00600000	         -0.42121600	          0.00000000	         11.47253500	          0.00000000	       -284.89695700	        553.97887000	         59.71727700	         -0.11897500	          0.00600000	         -0.76926500	          0.00000000	         -2.56574800	          0.00000000	          0.00000000	          0.00000000	          0.00000000	          0.00000000	          0.00000000	          0.00000000	          0.00000000	          0.00000000	          0.00000000	
          1.31500000	       -287.44316900	       1203.88288500	       -143.04440100	         -0.15718100	          0.00600000	         -0.42130100	          0.00000000	         11.51073100	          0.00000000	       -283.05431900	        565.05515900	         61.73778200	         -0.12009000	          0.00600000	         -0.76911100	          0.00000000	         -2.61087900	          0.00000000	          0.00000000	          0.00000000	          0.00000000	          0.00000000	          0.00000000	          0.00000000	          0.00000000	          0.00000000	          0.00000000	
          1.31550000	       -284.46451800	       1224.61062900	       -146.03590000	         -0.15847700	          0.00600000	         -0.42139900	          0.00000000	         11.52279400	          0.00000000	       -280.06547000	        575.54921900	         63.72322600	         -0.12124700	          0.00600000	         -0.76893600	          0.00000000	         -2.65322800	          0.00000000	          0.00000000	          0.00000000	          0.00000000	          0.00000000	          0.00000000	          0.00000000	          0.00000000	          0.00000000	          0.00000000	
          1.31600000	       -282.20858900	       1246.11003600	       -148.97613100	         -0.15982200	          0.00600000	         -0.42151200	          0.00000000	         11.50748100	          0.00000000	       -275.94733000	        585.54505500	         65.65446600	         -0.12245100	          0.00600000	         -0.76873900	          0.00000000	         -2.69111900	          0.00000000	          0.00000000	          0.00000000	          0.00000000	          0.00000000	          0.00000000	          0.00000000	          0.00000000	          0.00000000	          0.00000000	
          1.31650000	       -280.66859900	       1268.40290200	       -151.86610100	         -0.16121700	          0.00600000	         -0.42164000	          0.00000000	         11.46367700	          0.00000000	       -270.73411500	        595.13863400	         67.50743300	         -0.12370600	          0.00600000	         -0.76851900	          0.00000000	         -2.72205500	          0.00000000	          0.00000000	          0.00000000	          0.00000000	          0.00000000	          0.00000000	          0.00000000	          0.00000000	          0.00000000	          0.00000000	
          1.31700000	       -279.82743100	       1291.50877900	       -154.70492500	         -0.16266300	          0.00600000	         -0.42178200	          0.00000000	         11.39035000	          0.00000000	       -264.47742900	        604.43381300	         69.25453300	         -0.12501200	          0.00600000	         -0.76827500	          0.00000000	         -2.74330900	          0.00000000	          0.00000000	          0.00000000	          0.00000000	          0.00000000	          0.00000000	          0.00000000	          0.00000000	          0.00000000	          0.00000000	
